<?xml version="1.0" standalone="no"?>
<!DOCTYPE svg PUBLIC "-//W3C//DTD SVG 20010904//EN"
 "http://www.w3.org/TR/2001/REC-SVG-20010904/DTD/svg10.dtd">
<svg version="1.0" xmlns="http://www.w3.org/2000/svg"
 width="300.000000pt" height="300.000000pt" viewBox="0 0 300.000000 300.000000"
 preserveAspectRatio="xMidYMid meet">
<metadata>
Created by potrace 1.14, written by Peter Selinger 2001-2017
</metadata>
<g transform="translate(0.000000,300.000000) scale(0.100000,-0.100000)"
fill="#000000" stroke="none">
<path d="M1880 2950 c0 -17 -7 -20 -45 -20 -41 0 -45 -2 -45 -25 0 -18 -5 -25
-20 -25 -13 0 -20 -7 -20 -20 0 -15 -7 -20 -25 -20 -20 0 -25 -5 -25 -25 0
-23 -4 -25 -45 -25 -38 0 -45 -3 -45 -20 0 -19 -7 -20 -155 -20 -148 0 -155 1
-155 20 0 17 -7 20 -45 20 -41 0 -45 2 -45 25 0 23 -4 25 -45 25 -38 0 -45 3
-45 20 0 18 -7 20 -65 20 -58 0 -65 -2 -65 -20 0 -15 -7 -20 -25 -20 -24 0
-25 -2 -25 -70 0 -63 -2 -70 -20 -70 -19 0 -20 -7 -20 -180 l0 -180 -25 0 -25
0 0 -130 0 -130 25 0 c23 0 25 -4 25 -45 l0 -45 -70 0 c-68 0 -70 -1 -70 -25
0 -23 -4 -25 -45 -25 -38 0 -45 -3 -45 -20 0 -17 -7 -20 -45 -20 -41 0 -45 -2
-45 -25 0 -23 -4 -25 -45 -25 -38 0 -45 -3 -45 -20 0 -13 -7 -20 -20 -20 -15
0 -20 -7 -20 -25 0 -23 -4 -25 -45 -25 -38 0 -45 -3 -45 -20 0 -15 -7 -20 -25
-20 -20 0 -25 -5 -25 -25 0 -18 -5 -25 -20 -25 -13 0 -20 -7 -20 -20 0 -15 -7
-20 -25 -20 -20 0 -25 -5 -25 -25 0 -18 -5 -25 -20 -25 -13 0 -20 -7 -20 -20
0 -15 -7 -20 -25 -20 -23 0 -25 -4 -25 -45 0 -38 -3 -45 -20 -45 -17 0 -20 -7
-20 -45 0 -41 -2 -45 -25 -45 -25 0 -25 -1 -25 -90 0 -89 0 -90 25 -90 18 0
25 -5 25 -20 0 -17 7 -20 45 -20 41 0 45 -2 45 -25 0 -23 4 -25 45 -25 l45 0
0 -45 c0 -41 -2 -45 -25 -45 -18 0 -25 -5 -25 -20 0 -13 -7 -20 -20 -20 -18 0
-20 -7 -20 -70 l0 -70 -90 0 -90 0 0 -65 c0 -58 2 -65 20 -65 17 0 20 -7 20
-45 0 -41 2 -45 25 -45 23 0 25 -4 25 -45 0 -38 3 -45 20 -45 17 0 20 -7 20
-45 0 -41 2 -45 25 -45 18 0 25 -5 25 -20 0 -13 7 -20 20 -20 15 0 20 -7 20
-25 0 -20 5 -25 25 -25 18 0 25 -5 25 -20 0 -17 7 -20 45 -20 41 0 45 -2 45
-25 l0 -25 110 0 110 0 0 25 c0 23 4 25 45 25 38 0 45 3 45 20 0 18 7 20 70
20 68 0 70 1 70 25 l0 25 245 0 245 0 0 -25 c0 -25 1 -25 90 -25 83 0 90 -1
90 -20 0 -18 7 -20 65 -20 63 0 65 -1 65 -25 0 -23 4 -25 45 -25 l45 0 0 -45
c0 -41 2 -45 25 -45 18 0 25 -5 25 -20 0 -13 7 -20 20 -20 15 0 20 -7 20 -25
0 -23 4 -25 45 -25 38 0 45 -3 45 -20 0 -19 7 -20 110 -20 103 0 110 1 110 20
0 17 7 20 45 20 41 0 45 2 45 25 0 20 5 25 25 25 18 0 25 5 25 20 0 13 7 20
20 20 15 0 20 7 20 25 0 20 5 25 25 25 23 0 25 4 25 45 0 38 3 45 20 45 13 0
20 7 20 20 0 15 7 20 25 20 20 0 25 5 25 25 0 18 5 25 20 25 13 0 20 7 20 20
0 15 7 20 25 20 23 0 25 4 25 45 0 38 3 45 20 45 17 0 20 7 20 45 0 41 2 45
25 45 24 0 25 2 25 70 0 63 2 70 20 70 18 0 20 7 20 65 l0 65 45 0 c41 0 45
-2 45 -25 0 -23 4 -25 45 -25 41 0 45 2 45 25 0 23 4 25 45 25 38 0 45 3 45
20 0 15 7 20 25 20 20 0 25 5 25 25 0 18 5 25 20 25 17 0 20 7 20 45 0 38 -3
45 -20 45 -13 0 -20 7 -20 20 0 13 7 20 20 20 17 0 20 7 20 45 l0 45 -45 0
-45 0 0 45 c0 38 -3 45 -20 45 -17 0 -20 7 -20 45 0 41 -2 45 -25 45 -23 0
-25 4 -25 45 0 38 -3 45 -20 45 -17 0 -20 7 -20 45 0 41 -2 45 -25 45 -23 0
-25 4 -25 45 0 38 -3 45 -20 45 -13 0 -20 7 -20 20 0 15 -7 20 -25 20 -23 0
-25 4 -25 45 0 38 -3 45 -20 45 -15 0 -20 7 -20 25 0 20 -5 25 -25 25 -18 0
-25 5 -25 20 0 13 -7 20 -20 20 -15 0 -20 7 -20 25 0 20 -5 25 -25 25 -18 0
-25 5 -25 20 0 13 -7 20 -20 20 -15 0 -20 7 -20 25 0 23 -4 25 -45 25 -38 0
-45 3 -45 20 0 15 -7 20 -25 20 -20 0 -25 5 -25 25 0 18 -5 25 -20 25 -13 0
-20 7 -20 20 0 13 7 20 20 20 19 0 20 7 20 135 0 128 -1 135 -20 135 -18 0
-20 7 -20 65 0 63 -1 65 -25 65 -24 0 -25 2 -25 70 0 63 -2 70 -20 70 -17 0
-20 7 -20 45 0 41 -2 45 -25 45 -23 0 -25 4 -25 45 0 38 -3 45 -20 45 -17 0
-20 7 -20 45 0 41 -2 45 -25 45 -18 0 -25 5 -25 20 0 18 -7 20 -65 20 -58 0
-65 -2 -65 -20z"/>
</g>
</svg>
